#N canvas 683 69 588 811 10;
#X declare -path ofelia/abs;
#X obj 289 576 loadbang;
#X obj 289 618 ofWindow;
#X obj 27 25 ofDraw;
#X obj 216 270 nbx 5 14 -1e+037 1e+037 0 1 empty empty empty 0 -8 0
10 -262144 -1 -1 8 256;
#X obj 27 330 ofelia_toggle 100 70 40;
#X obj 156 433 bng 15 250 50 0 empty empty empty 17 7 0 10 -262144
-1 -1;
#X obj 156 392 bng 15 250 50 0 empty empty empty 17 7 0 10 -262144
-1 -1;
#X obj 289 639 ofSetup;
#X obj 289 700 pdcontrol;
#X msg 289 659 bang;
#X obj 27 127 ofelia_vRadio 350 30 7 20;
#X obj 27 46 ofelia_hRadio 50 300 12 40;
#X obj 27 208 ofelia_hSlider 200 50 120 40 0 1000;
#X obj 27 289 ofelia_vSlider 50 70 40 200 0 10;
#X obj 289 555 declare -path ofelia/abs;
#X obj 27 412 ofelia_bang 100 150 40;
#X obj 156 453 random 1000;
#X msg 289 597 setPosition 30 100 \, setSize 640 360 \, create;
#X obj 289 721 ofelia f \; ofSetWindowTitle("Ofelia GUI Jona") \; ofSetBackgroundColor(55)
\; font = ofTrueTypeFont() \; font:load(a \, 24) \;;
#X obj 180 27 nbx 5 14 -1e+037 1e+037 0 1 empty empty empty 0 -8 0
10 -262144 -1 -1 7 256;
#X obj 234 189 nbx 5 14 -1e+037 1e+037 0 1 empty empty empty 0 -8 0
10 -262144 -1 -1 300 256;
#X obj 174 108 nbx 5 14 -1e+037 1e+037 0 1 empty empty empty 0 -8 0
10 -262144 -1 -1 2 256;
#X obj 162 310 tgl 15 1 empty empty empty 17 7 0 10 -262144 -1 -1 1
1;
#X obj 192 598 r \$0-number;
#X obj 156 474 s \$0-number;
#X obj 162 371 s \$0-number;
#X obj 234 249 s \$0-number;
#X obj 27 620 ofelia_number 150 180 250 50;
#X obj 27 683 ofelia_number 150 240 250 50;
#X obj 192 661 r \$0-number2;
#X obj 216 330 s \$0-number2;
#X obj 156 536 bng 15 250 50 0 empty empty empty 17 7 0 10 -262144
-1 -1;
#X obj 156 495 bng 15 250 50 0 empty empty empty 17 7 0 10 -262144
-1 -1;
#X obj 156 577 s \$0-number2;
#X obj 156 556 random 1e+006;
#X obj 27 515 ofelia_bang 420 50 200;
#X obj 174 168 s \$0-number;
#X obj 180 87 s \$0-number2;
#X obj 174 148 nbx 5 14 -1e+037 1e+037 0 0 empty empty empty 0 -8 0
10 -262144 -1 -1 2 256;
#X obj 192 704 nbx 8 14 -1e+037 1e+037 0 0 empty empty empty 0 -8 0
10 -262144 -1 -1 959314 256;
#X obj 192 641 nbx 8 14 -1e+037 1e+037 0 0 empty empty empty 0 -8 0
10 -262144 -1 -1 746.667 256;
#X obj 162 351 nbx 5 14 -1e+037 1e+037 0 0 empty empty empty 0 -8 0
10 -262144 -1 -1 1 256;
#X obj 216 310 nbx 5 14 -1e+037 1e+037 0 0 empty empty empty 0 -8 0
10 -262144 -1 -1 9.65 256;
#X obj 234 229 nbx 5 14 -1e+037 1e+037 0 0 empty empty empty 0 -8 0
10 -262144 -1 -1 541.667 256;
#X obj 180 67 nbx 5 14 -1e+037 1e+037 0 0 empty empty empty 0 -8 0
10 -262144 -1 -1 11 256;
#X msg 186 744 symbol GUI;
#X obj 186 723 loadbang;
#X obj 27 765 ofelia_label 160 100 150 70;
#X msg 289 680 dir 0 data/DejaVuSansMono.ttf;
#X connect 0 0 17 0;
#X connect 2 0 11 0;
#X connect 3 0 13 1;
#X connect 4 0 15 0;
#X connect 4 1 41 0;
#X connect 5 0 16 0;
#X connect 6 0 15 1;
#X connect 7 0 9 0;
#X connect 8 0 18 0;
#X connect 9 0 48 0;
#X connect 10 0 12 0;
#X connect 10 1 38 0;
#X connect 11 0 10 0;
#X connect 11 1 44 0;
#X connect 12 0 13 0;
#X connect 12 1 43 0;
#X connect 13 0 4 0;
#X connect 13 1 42 0;
#X connect 15 0 35 0;
#X connect 15 1 5 0;
#X connect 16 0 24 0;
#X connect 17 0 1 0;
#X connect 19 0 11 1;
#X connect 20 0 12 1;
#X connect 21 0 10 1;
#X connect 22 0 4 1;
#X connect 23 0 27 1;
#X connect 27 0 28 0;
#X connect 27 1 40 0;
#X connect 28 0 47 0;
#X connect 28 1 39 0;
#X connect 29 0 28 1;
#X connect 31 0 34 0;
#X connect 32 0 35 1;
#X connect 34 0 33 0;
#X connect 35 0 27 0;
#X connect 35 1 31 0;
#X connect 38 0 36 0;
#X connect 41 0 25 0;
#X connect 42 0 30 0;
#X connect 43 0 26 0;
#X connect 44 0 37 0;
#X connect 45 0 47 1;
#X connect 46 0 45 0;
#X connect 48 0 8 0;
